<svg xmlns="http://www.w3.org/2000/svg" viewBox="3.7 128.1 71.9 130.7" width="71.9" height="130.7"><g fill="#fff"><path d="M41.3 137.2v4.1c2.1.1 3.6.5 4.4.7-.4-2.4-2.1-4.2-4.4-4.8"/><path d="M38.8 134.3c0 1.4-.3 2.3-.7 2.9 0 0 .7-.2 1.6-.2.6 0 1.5.2 1.6.2-.4-.6-.7-1.5-.7-2.9 3.1 0 3.8 1.4 3.8 2.6h.6v-7h-.6c0 1.2-.8 2.6-3.8 2.6 0-3.1 1.4-3.8 2.6-3.8v-.6h-7v.6c1.2 0 2.6.8 2.6 3.8-3.1 0-3.8-1.4-3.8-2.6h-.6v7h.6c0-1.2.7-2.6 3.8-2.6"/><path d="M38.1 137.2c-2.2.6-3.9 2.5-4.4 4.8.8-.2 2.3-.6 4.4-.7zM41.9 238.7c0 1.4 1.2 2.6 2.6 2.6 1.4 0 2.6-1.2 2.6-2.6 0-1.4-1.2-2.6-2.6-2.6-1.5.1-2.6 1.2-2.6 2.6m1.3 0c0-.7.6-1.3 1.3-1.3.7 0 1.3.6 1.3 1.3 0 .7-.6 1.3-1.3 1.3-.8 0-1.3-.5-1.3-1.3M37.2 204.8c0-1.3-1-2.3-2.3-2.3h-13c-1.1 0-2 .9-2 2 0 .8.6 1.4 1.4 1.4.8 0 1.4-.6 1.4-1.5.3.3.6.5 1 .7-.2.8-.4 1.9-.5 3.2-.2-.3-.5-.4-.8-.4-.5 0-1 .4-1 1 0 .5.4 1 1 1 .3 0 .6-.2.8-.4 0 .7 0 1.4.1 2.2-.2-.1-.4-.2-.6-.2-.5 0-1 .4-1 1 0 .5.4 1 1 1 .3 0 .7-.2.8-.5 0 .1 0 .2.1.3.2.6.4 1.2.6 1.7-.1-.1-.3-.1-.5-.1-.5 0-1 .4-1 1 0 .5.4 1 1 1 .5 0 .9-.4 1-.8.3.6.7 1.2 1.2 1.8h-.2c-.5 0-1 .4-1 1s.4 1 1 1c.5 0 1-.4 1-1v-.1c1.5 1.5 3.4 2.8 5.7 3.7l-.4 3s.9.4 2.3.8 2.7.6 2.7.6zM25.4 206s.1 0 .2.1l7.1 14.4c-8.8-4-7.9-11.2-7.3-14.5m7.5 13.4l-6.5-13.1c.4.1.8.1 1.2.1l5.6 11.3zm.4-2.9l-5-10.2c.4 0 .7-.1 1-.2l4.2 8.6zm.4-2.9l-3.8-7.6c.3-.1.6-.2.9-.4l3.1 6.2zm.4-2.9l-2.7-5.4c.3-.2.6-.4.8-.6l2.1 4.2zm.7-5l-.3 2.2-1.7-3.5c.2-.1.4-.1.6-.1.8-.1 1.5.6 1.4 1.4M28.6 146.9c0-.8.7-1.5 1.5-1.5s1.5.7 1.5 1.5c0 .9-.7 1.5-1.5 1.5-.8.1-1.5-.6-1.5-1.5M8.7 157.5c0-.8.7-1.5 1.5-1.5.9 0 1.5.7 1.5 1.5 0 .9-.7 1.5-1.5 1.5s-1.5-.7-1.5-1.5M7.9 153.6c0-.9.7-1.5 1.5-1.5s1.5.7 1.5 1.5-.7 1.5-1.5 1.5c-.8.1-1.5-.6-1.5-1.5M8.2 149.7c0-.8.7-1.5 1.5-1.5.9 0 1.5.7 1.5 1.5s-.7 1.5-1.5 1.5-1.5-.7-1.5-1.5M10.3 146.3c0-.8.7-1.5 1.5-1.5.9 0 1.5.7 1.5 1.5s-.7 1.5-1.5 1.5c-.8.1-1.5-.6-1.5-1.5M13.5 144c0-.8.7-1.5 1.5-1.5s1.5.7 1.5 1.5c0 .9-.7 1.5-1.5 1.5-.8.1-1.5-.6-1.5-1.5M17.4 143.3c0-.8.7-1.5 1.5-1.5.9 0 1.5.7 1.5 1.5s-.7 1.5-1.5 1.5c-.8.1-1.5-.6-1.5-1.5M21.2 144.1c0-.8.7-1.5 1.5-1.5.9 0 1.5.7 1.5 1.5s-.7 1.5-1.5 1.5c-.8.1-1.5-.6-1.5-1.5M24.9 145.6c0-.8.7-1.5 1.5-1.5.9 0 1.5.7 1.5 1.5 0 .9-.7 1.5-1.5 1.5s-1.5-.7-1.5-1.5M50.8 146.9c0-.8-.7-1.5-1.5-1.5s-1.5.7-1.5 1.5c0 .9.7 1.5 1.5 1.5.8.1 1.5-.6 1.5-1.5M70.7 157.5c0-.8-.7-1.5-1.5-1.5-.9 0-1.5.7-1.5 1.5 0 .9.7 1.5 1.5 1.5s1.5-.7 1.5-1.5M71.5 153.6c0-.9-.7-1.5-1.5-1.5s-1.5.7-1.5 1.5.7 1.5 1.5 1.5c.8.1 1.5-.6 1.5-1.5M71.1 149.7c0-.8-.7-1.5-1.5-1.5-.9 0-1.5.7-1.5 1.5s.7 1.5 1.5 1.5c.9 0 1.5-.7 1.5-1.5M69.1 146.3c0-.8-.7-1.5-1.5-1.5s-1.5.7-1.5 1.5.7 1.5 1.5 1.5c.8.1 1.5-.6 1.5-1.5M65.9 144c0-.8-.7-1.5-1.5-1.5-.9 0-1.5.7-1.5 1.5 0 .9.7 1.5 1.5 1.5.8.1 1.5-.6 1.5-1.5M62 143.3c0-.8-.7-1.5-1.5-1.5-.9 0-1.5.7-1.5 1.5s.7 1.5 1.5 1.5c.8.1 1.5-.6 1.5-1.5M58.1 144.1c0-.8-.7-1.5-1.5-1.5-.9 0-1.5.7-1.5 1.5s.7 1.5 1.5 1.5c.9.1 1.5-.6 1.5-1.5M54.4 145.6c0-.8-.7-1.5-1.5-1.5s-1.5.7-1.5 1.5c0 .9.7 1.5 1.5 1.5.9 0 1.5-.7 1.5-1.5M52.9 169c0-.9-.8-1.7-1.7-1.7-.9 0-1.7.8-1.7 1.7 0 .9.8 1.7 1.7 1.7.9 0 1.7-.8 1.7-1.7M41.8 179.2v19.4H59v-19.4zm16.7 18.9H42.3v-18.3h16.1z"/><path d="M44 180.4h-1v17h14.8v-17h-9.4zm12.8.5v.5h.5v15h-.5v.5H44v-.5h-.5v-15h.5v-.5z"/><path d="M56.1 185.3l-.8.8s-.1 0-.1.1l-1.5 1.4c-.5.4-.6 1.1-.2 1.6l.9 1.2c.1.1.1.2.1.4 0 .1-.1.3-.2.3-.1.1-.2.1-.4.1-.1 0-.3-.1-.3-.2 0 0-.9-1.2-1.3-1.8v-1.7l2.1-2v-1.7l-.7-.7.9-.9h-3.7l-.9.9v1c.1-.1.3-.1.4-.1.4 0 .8.4.8.8s-.4.8-.8.8c-.1 0-.3 0-.4-.1v1.2h-1.3l-1.5-2.1c.2-.2.3-.5.3-.8 0-.6-.5-1-1-1-.2 0-.4.1-.6.2V184.7h.1l1.4 2 .7 1H49.8l-.9.9h-1.8c-.1-.4-.5-.6-.9-.6s-.8.3-.9.6c0 .1-.1.2-.1.4s.1.5.2.6h4.1l.7 1h-2.8l1.1 1.5.6.8h-1.4c-.1-.4-.5-.7-1-.7-.4 0-.8.3-1 .7v.3c0 .3.1.5.3.7h5.1l-.7-1-.6-.8h1.6l.6.8.7 1h2.4v1.1h-.3c-.1-.4-.5-.7-1-.7s-.8.3-1 .7v.3c0 .3.1.5.3.7h3v-3.2h-2l-1-1.3c.2.2.4.4.7.4.3 0 .6 0 .9-.2.3-.2.4-.5.5-.8 0-.3 0-.6-.2-.9l-.9-1.2c-.2-.2-.1-.6.1-.7l.4-.4c.4.3.9.3 1.3 0 .2-.2.3-.4.3-.7zM39.7 166.7L42 169l-2.3 2.3-2.3-2.3zM26.5 169c0-.9.8-1.7 1.7-1.7.9 0 1.7.8 1.7 1.7 0 .9-.8 1.7-1.7 1.7-.9 0-1.7-.8-1.7-1.7M57.8 212.6v-.5c0-.7-.5-1.2-1.2-1.2h-4.3c0-.5-.5-1-1-1-.3 0-.5.1-.7.3l-1.3 1.3h7.3c.3 0 .5.2.5.5s-.2.5-.5.5h-8.5v-1.2l1.5-1.5h-5.9l1.5 1.5v2.2l-2.4-1.9c.2-.2.3-.5.3-.8 0-.6-.5-1-1-1-.2 0-.5.1-.7.2v1.8l3.7 3-1.7.5c-.1-.4-.5-.7-1-.7-.6 0-1 .5-1 1 0 .2.1.5.2.6h2.1l9.2-2.9v1.4l-1.2.5c-.1-.5-.5-.8-1-.8-.6 0-1 .5-1 1 0 .2.1.5.2.6h2.3l1.4-.7.9-.4-.4-.9v-.2h3.4c0 .1-.1.3-.1.4-.1.2-.2.5-.3.7-.2-.2-.5-.3-.8-.3-.6 0-1 .5-1 1 0 .2.1.5.2.6h2.1c.3-.6.5-1.3.6-1.7.3-.9.5-1.7.5-2 .1.1-.9.1-.9.1m-11.1.1l-1-1h2zM57.9 205.2c.1-.2.1-.3.1-.5 0-.7-.5-1.2-1.2-1.2h-4.5c0-.5-.5-1-1-1-.3 0-.5.1-.7.3l-1.3 1.3h7.6c.3 0 .5.2.5.5s-.2.5-.5.5h-8.8v-1.2l1.5-1.5h-5.9l1.5 1.5v2.2l-2.4-1.9c.2-.2.3-.5.3-.7 0-.6-.5-1-1-1-.2 0-.5.1-.7.2v1.8l3.6 2.9-1.7.5c-.1-.4-.5-.7-1-.7-.6 0-1 .5-1 1 0 .2.1.5.2.7h2.1l9.2-2.9v1.5l-1.2.4c-.1-.4-.5-.7-1-.7-.6 0-1 .5-1 1 0 .2.1.5.2.7h2.3l2.3-.7 1.1-.4-.9-.8-.6-.6h4.1v1.1c-.2-.2-.5-.4-.8-.4-.6 0-1 .5-1 1 0 .2.1.5.2.7h2.6v-3.7zm-11.2.1l-1-1h2zM54.1 218.2h-1.8c0-.5-.5-1-1-1-.3 0-.5.1-.7.3l-1.3 1.3h4.9c.3 0 .5.2.5.5s-.2.5-.5.5h-5.9v-1l1.5-1.5h-5.9l1.5 1.5v2.5l-2.4-2.2c.2-.2.4-.5.4-.8 0-.6-.5-1-1-1-.2 0-.5.1-.7.2V219.2l3.8 3.5.2-.2-2.4 2.9c-.2-.2-.5-.2-.7-.2-.6.1-1 .6-.9 1.1 0 .2.1.4.2.6.4 0 .9-.1 1.7-.2l2.7-3.2c.4-.1.7-.3 1.1-.4l1.1 1-.6.3c-.3-.2-.7-.3-1-.2-.5.2-.8.8-.6 1.3.1.2.2.3.3.4 0 0 .4-.1.8-.3.4-.2.8-.3.8-.3.5-.2.9-.4 1.3-.6V222c.7-.4 1.3-.8 1.8-1.3l1 .9c-.2.2-.4.3-.7.5-.3-.2-.7-.2-1 0-.2.1-.4.4-.5.6v.4c0 .1.1.3.1.4.1.2.3.3.5.4.5-.3.9-.6 1.4-.9.3-.2.7-.5 1-.8l.3-.3v-1.3h.7c.7 0 1.2-.5 1.2-1.2 0-.6-.5-1.2-1.2-1.2m-8.1 3.7zm.7-1.8l-1-1h2zM36.5 195.5c.1-.2.1-.3.1-.5 0-.7-.5-1.2-1.2-1.2h-4.5c0-.5-.5-1-1-1-.3 0-.5.1-.7.3l-1.3 1.3h7.6c.3 0 .5.2.5.5s-.2.5-.5.5h-8.7v-1.2l1.5-1.5h-5.9l1.5 1.5v2.2l-2.4-1.9c.2-.2.3-.5.3-.7 0-.6-.5-1-1-1-.3 0-.5.1-.7.2v1.8l3.6 2.9-1.7.5c-.1-.4-.5-.7-1-.7-.6 0-1 .5-1 1 0 .3.1.5.2.7h2.1l9.2-2.9v1.5l-1.2.4c-.1-.4-.5-.7-1-.7-.6 0-1 .5-1 1 0 .3.1.5.2.7h2.1l2.3-.7 1.1-.3-.9-.8-.6-.6h4.1v1.1c-.2-.2-.5-.4-.8-.4-.6 0-1 .5-1 1 0 .3.1.5.2.7h2.6v-3.7zm-11.3.1l-1-1h2zM36.5 188.4c.1-.2.1-.3.1-.5 0-.7-.5-1.2-1.2-1.2h-4.5c0-.5-.5-1-1-1-.3 0-.5.1-.7.3l-1.3 1.3h7.5c.3 0 .5.2.5.5s-.2.5-.5.5h-8.7v-1.2l1.5-1.5h-5.9l1.5 1.5v2.2l-2.4-1.9c.2-.2.3-.5.3-.7 0-.6-.5-1-1-1-.3 0-.5.1-.7.2v1.8l3.6 2.9-1.7.5c-.1-.4-.5-.7-1-.7-.6 0-1 .5-1 1 0 .2.1.5.2.7h2.1l9.2-2.9v1.5l-1.2.4c-.1-.4-.5-.7-1-.7-.6 0-1 .5-1 1 0 .2.1.5.2.7h2.2l2.3-.7 1.1-.4-.9-.8-.6-.6h4.1v1.1c-.2-.2-.5-.4-.8-.4-.6 0-1 .5-1 1 0 .2.1.5.2.7h2.6v-3.8h-1.1zm-11.3.1l-1-1h2zM36.5 181.2c.1-.2.1-.3.1-.5 0-.7-.5-1.2-1.2-1.2h-4.5c0-.5-.5-1-1-1-.3 0-.5.1-.7.3l-1.3 1.3h7.5c.3 0 .5.2.5.5s-.2.5-.5.5h-8.7v-1.2l1.5-1.5h-5.9l1.5 1.5v2.2l-2.4-1.9c.2-.2.3-.5.3-.7 0-.6-.5-1-1-1-.3 0-.5.1-.7.2v1.8l3.6 2.9-1.7.5c-.1-.4-.5-.7-1-.7-.6 0-1 .5-1 1 0 .3.1.5.2.7h2.1l9.2-2.9v1.5l-1.2.4c-.1-.4-.5-.7-1-.7-.6 0-1 .5-1 1 0 .3.1.5.2.7h2.1l2.3-.7 1.1-.3-.9-.8-.6-.6h4.1v1.1c-.2-.2-.5-.4-.8-.4-.6 0-1 .5-1 1 0 .3.1.5.2.7h2.6v-3.8zm-11.3.2l-1-1h2zM67.8 199.5c.7-.2 1-.9.8-1.5-.1-.3-.3-.6-.6-.7-.3-.2-.6-.2-.9-.1-.3.1-.6.3-.7.6-.2.3-.2.6-.1.9.2.6.9.9 1.5.8M64.3 202.2l.2 1.1 4-.6c.1 0 4 2 4 2l-.2-1.4-2.8-1.4c.2-.2 2.3-2.1 2.3-2.1l-.2-1.4-.1.1s-3.1 2.9-3.2 3c0 .1-4 .7-4 .7M67.4 206.1c0 .3.1.6.4.9.2.2.5.4.9.3.3 0 .6-.1.9-.4.2-.2.3-.5.3-.9 0-.3-.1-.6-.4-.9-.2-.2-.5-.4-.9-.4-.7.1-1.2.7-1.2 1.4M64.6 208.1l-.1 1.1s3.1.4 3.3.5c0 .1-.1.9-.1.9v.5c0 .5.1 1 .4 1.4.3.4.8.7 1.5.8 1.4.2 2.4-.5 2.6-1.9l.3-2.2zm6.4 2c0 .1-.1 1.1-.1 1.1-.1 1-.9 1-1.2.9-.6-.1-1-.5-1-1v-.2s.1-.8.1-1c.2-.1 2.1.1 2.2.2M63.9 212.6l-1.3 3.8 1.1.4s.9-2.7.9-2.8c.1.1 1.9.6 2.1.7-.1.2-.9 2.6-.9 2.6l1.1.4s.8-2.5.9-2.6c.1.1 1.9.6 2 .7-.1.2-.9 2.7-.9 2.7l1.1.4 1.3-3.8zM62.4 217.1l-.5.8s4.4 2.8 4.8 3.1c-.5 0-7.1.6-7.1.6l-.5.8 6.6 4.2.6-.9s-4.4-2.8-4.8-3.1c.5 0 7.2-.7 7.2-.7l.5-.8zM59.8 226.5c-.8.1-1.5.3-2-.2-.2-.2-.4-.8.1-1.3s1.2-.6 2-.5h.3l-1.2-1.2c-.8.1-1.4.3-1.9.9-.4.4-.6.9-.6 1.4 0 .6.2 1.1.7 1.6 1 1 2.1.8 3.1.6.7-.2 1.3-.3 1.8.1.1.2.2.3.2.5 0 .3-.1.5-.4.8-.4.4-.9.6-1.6.5h-.2l1.1 1.1c.6-.1 1.1-.3 1.5-.7.5-.5.7-1 .7-1.5s-.2-1.1-.7-1.5c-.9-1-2-.8-2.9-.6M55 226.1l-3.3 2.2.6 1s2.3-1.6 2.5-1.7c.1.1 1.1 1.7 1.2 1.8-.1.1-2.3 1.6-2.3 1.6l.6 1s2.2-1.5 2.3-1.5c.1.1 1.1 1.6 1.2 1.8-.1.1-2.4 1.6-2.4 1.6l.6 1 3.3-2.2zM26.1 231.3c-.1-.1-3-1.9-3.1-2 .1-.1 1.8-2.8 1.8-2.8l-1-.6v.1l-4.1 6.5 1 .6s1.7-2.7 1.8-2.8c.1.1 3 1.9 3.1 2-.1.1-1.8 2.8-1.8 2.8l1 .6 4.2-6.6-1-.6c-.1 0-1.8 2.6-1.9 2.8M22.1 225.5c.1-1-.3-1.9-.9-2.6-1.7-1.9-4-1.5-5.5-.2-.9.8-1.4 1.8-1.4 2.8-.1 1 .3 1.9 1 2.7 1.4 1.6 3.8 1.7 5.5.2.7-.8 1.2-1.8 1.3-2.9m-1.2 0c0 .7-.4 1.5-1 2-1.2 1.1-2.8 1.1-3.8-.1-.5-.5-.7-1.2-.6-1.8 0-.7.4-1.4 1-2 .6-.5 1.4-.8 2.1-.8.7 0 1.3.3 1.7.8.4.6.6 1.2.6 1.9M18 219s-4.8 2.2-5.2 2.4c.2-.4 3.3-6.5 3.3-6.5l-.4-.9h-.1l-7 3.3.5 1s4.8-2.2 5.2-2.4c-.2.4-3.3 6.5-3.3 6.5l.4.8 7-3.3zM7.8 213.8l.3 1.2 7.5-1.9-.2-1.2-.1.1zM11.8 209.4c-.3-.2-.6-.3-.9-.2-.3 0-.6.2-.8.5-.2.3-.3.6-.2.9 0 .3.2.6.5.8.3.2.6.3.9.2.7-.1 1.1-.7 1-1.4-.1-.4-.3-.6-.5-.8M11.3 206.4c.5-.7.9-1.3 1.6-1.3.2 0 .4.1.6.3.2.2.3.5.3.8 0 .6-.4 1.2-1.1 1.7l-.2.2h1.7c.5-.6.7-1.2.7-2 0-.5-.2-1-.5-1.4-.4-.4-1-.6-1.6-.6-1.4 0-2 .9-2.6 1.8-.4.6-.7 1.2-1.3 1.2-.2 0-.4-.1-.5-.2-.2-.2-.3-.5-.3-.8 0-.5.3-1.1.8-1.5l.2-.1H7.6c-.4.5-.6 1-.6 1.6 0 .7.2 1.2.6 1.6.4.4.9.6 1.5.6 1-.2 1.6-1.1 2.2-1.9M10.8 203.1c1.1.3 2.2.1 3.1-.4.8-.5 1.4-1.3 1.6-2.3.2-1 .1-2-.4-2.8-.5-.9-1.5-1.6-2.6-1.8-2.2-.6-4.3.6-4.8 2.7-.1.3-.1.6-.1.9 0 .7.2 1.3.5 1.8.7 1 1.6 1.7 2.7 1.9M9 198.8c.2-.7.6-1.2 1.1-1.6.6-.4 1.4-.5 2.2-.3.8.2 1.5.7 1.8 1.3.3.6.4 1.2.3 1.9-.4 1.4-1.8 2.2-3.4 1.8-1.5-.3-2.4-1.6-2-3.1"/><path d="M75.6 206.4c0-9.6-3.7-18.6-10.5-25.4-.8-.8-1.6-1.5-2.5-2.3v-1.4c1.4-.1 2.6-1.3 2.6-2.7 0-1.5-1.2-2.7-2.7-2.7h-.2l2.6-1.2-1-2.2 3.9-9.1-1.7-.7-4 9.3-2.1 1 1.4 3H18l1.4-3-2.2-1-4-9.3-1.7.7 3.9 9.1-1 2.2 2.6 1.2h-.1c-1.5 0-2.7 1.2-2.7 2.7 0 1.4 1.1 2.6 2.5 2.7v1.4c-.8.7-1.7 1.5-2.5 2.3-6.8 6.8-10.5 15.8-10.5 25.4 0 7.4 2.2 14.5 6.5 20.6 4.2 5.9 9.9 10.4 16.7 12.9 0 0 .4.1 1 .4.1 1 .7 1.9 1.6 2.2 1 .4 2.1 0 2.7-.7h.1V252c0 3.8 3.2 6.8 7.2 6.8s7.2-3.1 7.2-6.8v-6.8l17.6-8.4c.6-.2 1.1-.5 1.6-.9 1.4-1.3 1.6-3.3.7-5.9 1.6-1.8 3-3.7 4.1-5.8 3.2-5.4 4.9-11.5 4.9-17.8m-18.7-32.8l5.2 1.1-5.2 1.1zm-16.7 54.6v-27h20.6v5.1c0 5-.9 8.4-2.2 10.9-1.1 1.8-2.4 3.5-4 5l-.3.3c-3.8 3.6-8.9 5.6-14.1 5.7m6.2.9c-.4.9-.7 1.9-.9 3-2-.7-3.9-1.4-5.8-2.1 2.3.1 4.6-.3 6.7-.9m-6.2-28.8v-22.9H60.8v22.9zm7.2-26.7l5.2 1.1-5.2 1.1zm-9.6 0l5.2 1.1-5.2 1.1zm-9.7 0l5.2 1.1-5.2 1.1zm-9.4 0l5.2 1.1-5.2 1.1zm0 21.8v-18H39.3v22.9H18.7zm0 5.8h20.6v27c-4.2-.1-8.3-1.4-11.8-3.8-.1-.1-.3-.2-.4-.3l-.1-.1c-.1-.1-.2-.1-.3-.2-.1-.1-.2-.2-.3-.2l-.1-.1c-2.2-1.7-4.1-3.9-5.5-6.4-1.3-2.5-2.1-5.9-2.1-10.8zm9.8 37.4c-.3-.1-.6-.2-.8-.3-6.4-2.4-11.9-6.7-15.8-12.3-4-5.7-6.2-12.5-6.2-19.6 0-9.1 3.5-17.6 10-24.1.4-.4.8-.8 1.2-1.1v9.3c-1.4-1-3-2-3.1-2.1.1-.1 1.3-2 1.3-2l-1-.6v.1l-3.2 4.8 1 .6s1.2-1.8 1.3-2c.1.1 2.2 1.4 3.7 2.5v3.3l-6.6-3v.1l-.5 1 7.1 3.3v4c-.5 1.9-.8 3.9-.8 6 0 4.3 1.2 8.3 3.2 11.8 1.3 2.5 3 4.2 4.6 5.7.7.6 1.4 1.2 2.2 1.8.1 0 .1.1.2.1.1.1.2.1.3.2.1.1.2.1.3.2l.1.1c.6.4 1.2.8 1.9 1.1.9.4 2.1 1 3.5 1.6l-1.5 3.7-.7-.3c-.4-.2-.9 0-1.1.4-.2.4 0 .9.4 1.1l.7.3zm16.6 13.5c0 .7-.2 1.4-.5 2-.3.5-.8.8-1.3.8-.7 0-1.3-.4-1.5-1.1 0-.1-.1-.4-.2-.9.2.1.4.1.6.1.9 0 1.6-.7 1.6-1.5 0-.9-.7-1.5-1.6-1.5-.5 0-.9.2-1.2.5-.5-2-1-4.2-1-4.2h-.7s-.5 2.2-1 4.2c-.3-.3-.7-.5-1.1-.5-.9 0-1.5.7-1.5 1.5 0 .9.7 1.5 1.5 1.5.2 0 .4 0 .6-.1-.1.4-.2.8-.2.9-.2.6-.8 1.1-1.5 1.1-.6 0-1.1-.3-1.4-.8-.3-.6-.4-1.3-.4-2v-9.6c3.2 1 7.2 2.2 10.9 3zm.8-8.4c-5.6-1.2-12.1-3.3-15.9-4.6.4-.9 1-2.5 1.7-4.2l1 .4v.2c0 1.4 1.2 2.6 2.6 2.6 1.4 0 2.6-1.2 2.6-2.6 0-1.4-1.2-2.6-2.6-2.6-.8 0-1.4.3-1.9.9l-1.1-.5c.6-1.5 1.1-2.9 1.5-3.7 3.8 1.6 8.7 3.5 13.4 5 5 1.5 9 2.4 12 2.7-5.3 2.6-12.9 6.2-13.3 6.4m18.9-9.2c-.5.5-1.7 1-4.2 1 1.7-1.2 3.2-2.5 4.6-4 .4 1.4.3 2.4-.4 3m-7.1.8c-2.4-.3-5.7-1.1-10-2.4-.2-.1-.4-.1-.6-.2.4-2.5 1.2-4.1 2.6-4.9 2.2-1 4.2-2.4 6-4.1 1.6-1.4 3.2-3.1 4.4-5.5 2-3.5 3.2-7.6 3.2-11.9 0-2-.3-4.1-.8-6v-3.8l1.1 2.8 1.1-.4s-1.1-2.7-1.1-2.8c.2-.1 6.2-2.5 6.2-2.5l-.4-1.1h-.1l-6.7 2.7v-.5l4.5-6.4-.4-.7h-.1l-4 .9V181c.4.4.8.7 1.2 1.1 6.4 6.4 10 15 10 24.1 0 5.9-1.5 11.8-4.5 16.9-2.8 5.1-6.8 9.2-11.6 12.2m5.3-42.9l-.4.6v-1.2l.4.6m-.3-2.6c.2 0 2.2-.5 2.5-.6-.2.3-1.4 2-1.5 2.1-.1-.1-.9-1.3-1-1.5"/><path d="M66.5 148.8c-1.4-2.1-3.7-3-5.4-3-2.4 0-4.9 1-7.3 2-2.7 1.1-5.5 2.2-8.3 2 .3-1 .7-2 1.2-2.8l-1.7-.8c.3-.6.6-1.3.7-2.1-.2-.1-2.5-.9-6.2-.9s-5.8.8-6 .9c.1.8.3 1.5.7 2.1l-1.7.8c.5.8.9 1.8 1.2 2.8-2.8.3-5.6-.9-8.3-2-2.4-1-4.9-2-7.3-2-1.7 0-4 .9-5.4 3-1.1 1.7-2 4.9.4 10v-.1l3.5-1.5.2.6c-1.1.5-2.2 1.8-.9 4.8 3-1.3 3.1-3 2.6-4.1l.6-.2 1.5 3.4 1.5 3.4-.6.2c-.5-1.1-1.8-2.2-4.8-.9 1.3 3 3.6 4.2 5.4 4.2 3.1 0 5.3-1.9 5-3.8-.2-1.4-1.5-1.9-2-1.8-.6.1-1 .8-.9 1.2 0 .1.1.2.1.3l-.1.1c-.8-.1-1.5-.7-1.7-1.5-.2-1 .5-2 1.5-2.2.6-.1 1.2.1 1.7.5l.2-.3c-.6-.3-1-.8-1.1-1.5-.3-1.6 1.5-3.2 1.6-3.2 0 0 2.3.8 2.6 2.4.1.7-.1 1.3-.5 1.8l.3.2c.2-.5.7-1 1.4-1.1 1-.2 2 .5 2.2 1.5.2.8-.3 1.7-1 2l-.1-.1v-.3c-.1-.5-.7-.9-1.3-.8-.5.1-1.5 1-1.2 2.4.5 2.4 2.5 4.1 4.9 4.1 2.4 0 5-2 5-5-3.5 0-4.3 1.6-4.3 3h-.7v-8h.7c0 1.3.9 3 4.3 3 0-3.5-1.6-4.3-3-4.3v-.7h7.9v.7c-1.3 0-3 .9-3 4.3 3.5 0 4.3-1.6 4.3-3h.7v8h-.5c0-1.3-.9-3-4.3-3 0 3 2.5 5 5 5 2.4 0 4.5-1.7 4.9-4.1.3-1.4-.7-2.4-1.2-2.4-.6-.1-1.2.3-1.3.8v.3l-.1.1c-.7-.4-1.2-1.2-1-2 .2-1 1.2-1.7 2.2-1.5.6.1 1.1.5 1.4 1.1l.3-.2c-.4-.5-.6-1.1-.5-1.8.3-1.6 2.6-2.4 2.6-2.4s1.9 1.6 1.6 3.2c-.1.7-.6 1.2-1.1 1.5l.2.3c.4-.4 1-.6 1.7-.5 1 .2 1.7 1.2 1.5 2.2-.2.9-.9 1.5-1.7 1.5l-.1-.1c.1-.1.1-.2.1-.3.1-.5-.3-1.1-.9-1.2-.5-.1-1.8.4-2 1.8-.3 1.9 2 3.8 5 3.8 1.8 0 4.1-1.2 5.4-4.2-3-1.3-4.3-.2-4.8.9l-.6-.2 1.5-3.4 1.5-3.4.6.2c-.5 1.1-.4 2.8 2.6 4.1 1.3-3 .2-4.3-.9-4.8l.2-.6 3.5 1.5v.1c2.1-5.2 1.2-8.3.1-10m-32.1 4.4c-1.7 0-3.1.9-3.9 2.3-.9-1.6-2.9-2.6-4.8-2.2-1.4.3-2.6 1.3-3.1 2.5-.8-1.3-2.2-2.1-3.8-2.1-2 0-3.7 1.3-4.3 3.1-1.1-2.9-1.1-5.3 0-7 1.1-1.7 3-2.2 3.8-2.2 2.1 0 4.3.9 6.6 1.8 3 1.2 6.1 2.5 9.5 2 .1.6.2 1.1.3 1.7-.1.1-.2.1-.3.1m5.3-9.3c.9 0 1.7.7 1.8 1.6-.5-.4-1.1-.7-1.8-.7s-1.3.3-1.8.7c.1-.9.9-1.6 1.8-1.6m0 1.7c.9 0 1.7.7 1.8 1.6-.5-.4-1.1-.7-1.8-.7s-1.3.3-1.8.7c.1-.9.9-1.6 1.8-1.6m0 10.1c-1 0-1.8-.8-1.8-1.8s.8-1.8 1.8-1.8 1.8.8 1.8 1.8-.8 1.8-1.8 1.8m1.7-3.9c-.5-.4-1.1-.6-1.7-.6-.7 0-1.2.2-1.7.6-.1-.2-.1-.4-.1-.6 0-1 .8-1.8 1.8-1.8s1.8.8 1.8 1.8c0 .2 0 .4-.1.6m.1-2.5c-.5-.4-1.1-.7-1.8-.7s-1.3.3-1.8.7v-.1c0-1 .8-1.8 1.8-1.8s1.8.8 1.8 1.8v.1m23.4 7.5c-.6-1.8-2.3-3.1-4.3-3.1-1.6 0-3 .8-3.8 2.1-.6-1.2-1.7-2.2-3.1-2.5-2-.4-3.9.5-4.8 2.2-.8-1.3-2.2-2.3-3.9-2.3h-.3c.1-.5.2-1.1.3-1.7 3.4.5 6.5-.8 9.5-2 2.3-.9 4.5-1.8 6.6-1.8.8 0 2.7.5 3.8 2.2 1.1 1.6 1.1 4 0 6.9M50.5 179.6h.1l.1-.1.4-.8h-1.4l.4.8h.4l-.1.3zM42.1 179.4l-.1.1v.3l-.7-.1v-.5l-.5-.9.1-.1.9.5h.5v.7l-.2-.1"/><path d="M42.6 179.2c-.1 0-.2-.1-.2-.2s.1-.2.2-.2.1 0 .2.1h.1v-.2c0-.3-.2-.5-.5-.5s-.5.2-.5.5.2.5.5.5h.2M41.8 180c0-.1-.1-.2-.2-.2s-.2.1-.2.2 0 .1.1.2v.1h-.2c-.3 0-.5-.2-.5-.5s.2-.5.5-.5.5.2.5.5v.2M42.1 198.5l-.1-.1v-.3l-.7.1v.4l-.5.9.1.2.9-.6h.5v-.7l-.2.1"/><path d="M42.6 198.6c-.1 0-.2.1-.2.2s.1.2.2.2.1 0 .2-.1h.1v.2c0 .3-.2.5-.5.5s-.5-.2-.5-.5.2-.5.5-.5h.2M41.8 197.9c0 .1-.1.2-.2.2s-.2-.1-.2-.2 0-.1.1-.2v-.1h-.2c-.3 0-.5.2-.5.5s.2.5.5.5.5-.2.5-.5v-.2M58.7 198.5l.1-.1v-.3l.7.1v.4l.5.9-.1.2-.9-.6h-.5v-.7l.2.1"/><path d="M58.2 198.6c.1 0 .2.1.2.2s-.1.2-.2.2-.1 0-.2-.1h-.1v.2c0 .3.2.5.5.5s.5-.2.5-.5-.2-.5-.5-.5h-.2M59 197.9c0 .1.1.2.2.2s.2-.1.2-.2 0-.1-.1-.2v-.1h.2c.3 0 .5.2.5.5s-.2.5-.5.5-.5-.2-.5-.5v-.2M58.7 179.4l.1.1v.3l.7-.1v-.5l.5-.9-.1-.1-.9.5h-.5v.7l.2-.1"/><path d="M58.2 179.2c.1 0 .2-.1.2-.2s-.1-.2-.2-.2-.1 0-.2.1h-.1v-.2c0-.3.2-.5.5-.5s.5.2.5.5-.2.5-.5.5h-.2M59 180c0-.1.1-.2.2-.2s.2.1.2.2 0 .1-.1.2v.1h.2c.3 0 .5-.2.5-.5s-.2-.5-.5-.5-.5.2-.5.5zM49.6 180.6h1.5v.6h-1.5zM50.3 181.9l-.3-.6h.8l-.3.6zM51.3 180.9"/><path d="M51.5 181.2l-.1.1c-.1 0-.2-.1-.2-.2s.1-.2.2-.2h-.2c-.2 0-.4.2-.4.4s.2.4.4.4.4-.2.4-.4c-.1 0-.1 0-.1-.1zM49.3 181.2l.1.1c.1 0 .2-.1.2-.2s-.1-.2-.2-.2h.2c.2 0 .4.2.4.4s-.2.4-.4.4-.4-.2-.4-.4c.1 0 .1 0 .1-.1zM50.3 198.3h-.1l-.1.1-.4.8h1.4l-.4-.8-.3-.1h-.1l.2-.2zM49.7 196.5h1.5v.6h-1.5z"/><path d="M50.5 195.9l.3.7H50l.3-.7zM49.3 196.7l.1-.1c.1 0 .2.1.2.2s-.1.2-.2.2h.2c.2 0 .4-.2.4-.4s-.2-.4-.4-.4-.4.2-.4.4c.1 0 .1 0 .1.1zM51.5 196.7l-.1-.1c-.1 0-.2.1-.2.2s.1.2.2.2h-.2c-.2 0-.4-.2-.4-.4s.2-.4.4-.4.4.2.4.4c-.1 0-.1 0-.1.1zM58.7 189.1h-.1l.1.1.8.4v-1.4l-.8.4v.4l-.2-.1zM56.9 188.2h.6v1.5h-.6zM56.3 188.8l.6-.3v.8l-.6-.3zM57.3 189.9v-.1.1"/><path d="M57.1 190l-.1-.1c0-.1.1-.2.2-.2s.2.1.2.2v-.2c0-.2-.2-.4-.4-.4s-.4.2-.4.4.2.4.4.4l.1-.1zM57.1 187.9l-.1.1c0 .1.1.2.2.2s.2-.1.2-.2v.2c0 .2-.2.4-.4.4s-.4-.2-.4-.4.2-.4.4-.4l.1.1zM42.1 189.1h.1l-.1.1-.8.4v-1.4l.8.4v.4l.2-.1zM43.2 188.2h.6v1.5h-.6zM44.5 188.8l-.6-.3v.8l.6-.3zM43.5 189.9v-.1.1"/><path d="M43.8 190l.1-.1c0-.1-.1-.2-.2-.2s-.2.1-.2.2v-.2c0-.2.2-.4.4-.4s.4.2.4.4-.2.4-.4.4c0 0-.1 0-.1-.1zM43.8 187.9l.1.1c0 .1-.1.2-.2.2s-.2-.1-.2-.2v.2c0 .2.2.4.4.4s.4-.2.4-.4-.2-.4-.4-.4c0 0-.1 0-.1.1z"/></g></svg>